<svg xmlns="http://www.w3.org/2000/svg" version="1.1" xmlns:xlink="http://www.w3.org/1999/xlink" width="512" height="512" x="0" y="0" viewBox="0 0 64 64" style="enable-background:new 0 0 512 512" xml:space="preserve" class=""><g><path d="M51.873 19.241h-.186c.46-4.357-2.471-8.291-7-8.316H11a7.008 7.008 0 0 0-7 7v19.837c.03 4.528 3.952 7.46 8.315 7v.186a8.136 8.136 0 0 0 8.127 8.127h31.431A8.136 8.136 0 0 0 60 44.948v-17.58a8.136 8.136 0 0 0-8.127-8.127zM6 37.762V17.925a5.006 5.006 0 0 1 5-5h33.687a5.006 5.006 0 0 1 5 5v19.837a5.006 5.006 0 0 1-5 5H11a5.006 5.006 0 0 1-5-5zm52 7.186a6.134 6.134 0 0 1-6.127 6.127h-31.43a6.134 6.134 0 0 1-6.128-6.127c-.416-.475 30.403-.047 30.371-.186a7.008 7.008 0 0 0 7-7v-16.52A6.143 6.143 0 0 1 58 27.367z" fill="#ffffff" opacity="1" data-original="#000000" class=""></path><path d="M19.223 37.691a2.636 2.636 0 0 0 2.662 0l15.41-8.898a1.053 1.053 0 0 0 .5-1.033 1 1 0 0 0-.5-.866l-15.41-8.898a2.677 2.677 0 0 0-3.994 2.306v15.083a2.636 2.636 0 0 0 1.332 2.306zm.668-17.39a.653.653 0 0 1 .994-.573l14.054 8.115-14.054 8.116a.663.663 0 0 1-.994-.574z" fill="#ffffff" opacity="1" data-original="#000000" class=""></path></g></svg>