<svg xmlns="http://www.w3.org/2000/svg" version="1.1" xmlns:xlink="http://www.w3.org/1999/xlink" xmlns:svgjs="http://svgjs.com/svgjs" width="120" height="120" x="0" y="0" viewBox="0 0 48 48" style="enable-background:new 0 0 512 512" xml:space="preserve" fill-rule="evenodd" class=""><g><path d="M26.744 17.104a1 1 0 0 0-.757-.87 7.996 7.996 0 0 0-3.817 0 1 1 0 0 0-.757.87l-.125 1.228a6.26 6.26 0 0 0-.727.42l-1.126-.507a1.002 1.002 0 0 0-1.132.22 8 8 0 0 0-1.908 3.307 1 1 0 0 0 .375 1.09l1 .722c-.017.28-.017.56 0 .84l-1 .722a1 1 0 0 0-.375 1.091 8 8 0 0 0 1.908 3.306c.293.305.746.394 1.132.22l1.126-.506c.233.155.476.297.727.42l.125 1.228a1 1 0 0 0 .757.87 7.996 7.996 0 0 0 3.817 0 1 1 0 0 0 .757-.87l.125-1.228a6.26 6.26 0 0 0 .727-.42l1.126.507c.386.173.84.084 1.132-.22a8 8 0 0 0 1.908-3.307 1 1 0 0 0-.375-1.09l-1-.722c.017-.28.017-.56 0-.84l1-.722a1 1 0 0 0 .375-1.091 8 8 0 0 0-1.908-3.306 1.002 1.002 0 0 0-1.132-.22l-1.126.506a6.449 6.449 0 0 0-.727-.42l-.125-1.228zm-1.914.947.108 1.068c.04.38.29.702.646.836.454.168.876.411 1.25.72a1 1 0 0 0 1.046.142l.98-.44c.303.4.555.837.75 1.3l-.87.63a.999.999 0 0 0-.4.977c.08.477.08.964 0 1.441a.999.999 0 0 0 .4.978l.871.629a6.06 6.06 0 0 1-.751 1.3l-.98-.44a1 1 0 0 0-1.047.141c-.373.31-.795.553-1.249.72a1.004 1.004 0 0 0-.646.837l-.108 1.068a5.932 5.932 0 0 1-1.503 0l-.108-1.068c-.04-.38-.29-.702-.646-.836a4.295 4.295 0 0 1-1.25-.72 1 1 0 0 0-1.046-.142l-.98.44a6.002 6.002 0 0 1-.75-1.3l.87-.63a.999.999 0 0 0 .4-.977 4.346 4.346 0 0 1 0-1.441.999.999 0 0 0-.4-.978l-.871-.629c.196-.463.448-.9.751-1.3l.98.44a1 1 0 0 0 1.047-.141c.373-.31.795-.553 1.249-.72.356-.135.607-.458.646-.837l.108-1.068a5.932 5.932 0 0 1 1.503 0zm-.752 2.572c-1.866 0-3.38 1.515-3.38 3.381s1.514 3.382 3.38 3.382 3.382-1.515 3.382-3.382-1.515-3.38-3.382-3.38zm0 2.002a1.381 1.381 0 0 1 0 2.76 1.381 1.381 0 0 1 0-2.76z" fill="#ffffff" data-original="#ffffff" class=""></path><circle cx="34" cy="28" r="1" transform="translate(-10 -25)" fill="#ffffff" data-original="#ffffff" class=""></circle><circle cx="34" cy="28" r="1" transform="rotate(90 43 30)" fill="#ffffff" data-original="#ffffff" class=""></circle><circle cx="34" cy="28" r="1" transform="rotate(135 35.286 34.098)" fill="#ffffff" data-original="#ffffff" class=""></circle><circle cx="34" cy="28" r="1" transform="rotate(-135 22.708 38.267)" fill="#ffffff" data-original="#ffffff" class=""></circle><circle cx="34" cy="28" r="1" transform="matrix(0 1 1 0 -25 -13)" fill="#ffffff" data-original="#ffffff" class=""></circle><circle cx="34" cy="28" r="1" transform="scale(-1 1) rotate(45 38.805 -35.017)" fill="#ffffff" data-original="#ffffff" class=""></circle><circle cx="34" cy="28" r="1" transform="scale(-1 1) rotate(-45 -28.804 105.028)" fill="#ffffff" data-original="#ffffff" class=""></circle><path d="M32.948 39a3 3 0 0 0-3-3H17.951a3 3 0 0 0-3 3s0 .552 0 0a3 3 0 0 0 3 3h11.997a3 3 0 0 0 3-3zm-2 0a1 1 0 0 1-1 1H17.951c-.553 0-1-.448-1-1 0 .552 0 0 0 0a1 1 0 0 1 1-1h11.997a1 1 0 0 1 1 1z" fill="#ffffff" data-original="#ffffff" class=""></path><path d="M25.845 42a2.001 2.001 0 0 1-4 0 1 1 0 0 0-2 0 4 4 0 0 0 8 0 1 1 0 0 0-2 0zM32.68 30.508a14.938 14.938 0 0 0-3.46 6.244 1 1 0 0 0 1.93.524 12.951 12.951 0 0 1 2.997-5.409 1.001 1.001 0 0 0-1.468-1.359zM19.43 36.725a13.473 13.473 0 0 0-3.24-5.76h-.002a10.59 10.59 0 0 1-2.936-7.332c0-2.259.705-4.353 1.908-6.076a1 1 0 0 0-1.64-1.144 12.569 12.569 0 0 0-2.268 7.22 12.58 12.58 0 0 0 3.49 8.711 11.491 11.491 0 0 1 2.759 4.904.999.999 0 1 0 1.928-.523zM18.406 14.52c1.6-.966 3.476-1.521 5.48-1.521 5.87 0 10.634 4.765 10.634 10.634 0 1.067-.157 2.098-.45 3.07a1 1 0 0 0 1.914.577c.348-1.155.536-2.379.536-3.647 0-6.973-5.661-12.634-12.634-12.634-2.382 0-4.611.661-6.513 1.81a1 1 0 0 0 1.033 1.71zM23 7v1a1 1 0 0 0 2 0V7a1 1 0 0 0-2 0zM41 20h-1a1 1 0 0 0 0 2h1a1 1 0 0 0 0-2zM38.432 33.957l-.707-.707a1 1 0 0 0-1.414 1.414l.707.707a1 1 0 0 0 1.414-1.414zM11.008 35.467l.707-.707a1 1 0 0 0-1.414-1.414l-.707.707a1 1 0 0 0 1.414 1.414zM7 22h1a1 1 0 0 0 0-2H7a1 1 0 0 0 0 2zM11.28 9.633l.707.707a1 1 0 0 0 1.414-1.414l-.707-.707a1 1 0 0 0-1.414 1.414zM35.367 8.28l-.707.707a1 1 0 0 0 1.414 1.414l.707-.707a1 1 0 0 0-1.414-1.414z" fill="#ffffff" data-original="#ffffff" class=""></path></g></svg>