<svg xmlns="http://www.w3.org/2000/svg" version="1.0" width="1280.000000pt" height="1091.000000pt" viewBox="0 0 1280.000000 1091.000000" preserveAspectRatio="xMidYMid meet">
<metadata fill="#00b0ff">
Created by potrace 1.15, written by Peter Selinger 2001-2017
</metadata>
<g transform="translate(0.000000,1091.000000) scale(0.100000,-0.100000)" fill="#00b0ff" stroke="none">
<path d="M2812 10895 c-471 -83 -833 -474 -870 -941 -41 -508 262 -953 749 -1102 158 -48 380 -54 544 -13 400 98 719 439 786 840 27 158 9 373 -43 526 -111 323 -395 583 -733 671 -126 32 -310 40 -433 19z" fill="#00b0ff"/>
<path d="M7724 9339 c-681 -715 -1252 -1315 -1269 -1334 l-30 -34 -59 20 c-120 41 -265 22 -369 -50 -60 -41 -113 -101 -457 -515 -162 -195 -297 -355 -300 -355 -3 -1 -25 70 -49 157 -105 375 -155 504 -257 659 -230 355 -557 574 -983 661 -119 24 -1716 30 -1873 7 -371 -54 -730 -282 -984 -623 -125 -168 -147 -228 -303 -797 -77 -280 -172 -627 -211 -770 -39 -143 -84 -307 -100 -365 -16 -58 -78 -286 -139 -508 -61 -221 -111 -405 -111 -407 0 -3 207 -5 460 -5 l459 0 20 68 c11 37 33 117 50 177 44 162 400 1457 477 1733 l15 52 114 0 c87 0 113 -3 110 -12 -6 -18 -58 -211 -315 -1167 -122 -453 -224 -830 -227 -837 -4 -12 241 -14 1632 -14 1465 0 1637 2 1631 15 -3 9 -62 210 -130 448 -69 238 -197 684 -286 991 -88 307 -163 563 -166 568 -3 5 48 7 117 6 l123 -3 22 -70 c12 -38 81 -259 154 -490 72 -231 144 -450 160 -487 62 -148 182 -270 298 -304 115 -34 256 -2 357 81 72 59 119 114 704 820 604 729 629 763 652 887 18 103 -19 229 -92 313 l-31 35 108 113 c626 651 2409 2531 2411 2540 1 7 -20 31 -46 54 l-47 42 -1240 -1300z" fill="#00b0ff"/>
<path d="M10587 10305 c-176 -249 -187 -267 -187 -310 l0 -45 175 0 175 0 0 -95 0 -95 50 0 50 0 0 95 0 95 55 0 55 0 0 44 0 45 -52 3 -53 3 -3 263 -2 262 -38 0 -38 0 -187 -265z m160 -262 c-3 -2 -59 -2 -125 -1 l-120 3 121 176 122 175 3 -174 c1 -96 1 -177 -1 -179z" fill="#00b0ff"/>
<path d="M12574 10211 c-17 -10 -36 -33 -44 -50 -14 -35 -14 -36 17 -45 19 -6 25 -2 33 20 21 54 82 72 120 34 20 -20 26 -65 12 -86 -11 -16 -48 -34 -71 -34 -16 0 -21 -6 -21 -26 0 -20 4 -25 17 -20 23 9 81 -12 93 -34 6 -10 10 -34 10 -53 0 -41 -46 -87 -87 -87 -28 0 -83 49 -83 74 0 13 -6 15 -27 10 -38 -9 -37 -8 -17 -49 23 -50 67 -75 128 -75 109 0 177 100 131 191 -9 16 -27 34 -42 40 l-25 9 25 20 c52 41 39 133 -22 164 -41 22 -109 20 -147 -3z" fill="#00b0ff"/>
<path d="M8742 9518 c71 -183 141 -364 156 -403 l28 -70 55 -3 55 -3 41 108 c23 59 94 241 157 403 64 162 116 296 116 297 0 2 -24 3 -54 3 l-53 0 -16 -42 c-93 -249 -208 -564 -223 -611 -10 -31 -21 -54 -25 -50 -4 5 -14 31 -22 58 -12 41 -199 569 -222 628 -6 13 -19 17 -65 17 l-57 0 129 -332z" fill="#00b0ff"/>
<path d="M11495 9723 c-66 -20 -125 -64 -155 -115 -8 -14 -5 -20 16 -31 26 -13 29 -12 57 20 29 33 75 63 97 63 7 0 10 -88 10 -270 l0 -270 50 0 50 0 0 276 0 277 54 -7 c30 -3 66 -10 80 -16 l26 -10 0 -260 0 -260 45 0 45 0 0 250 0 250 85 0 85 0 0 29 0 28 -87 6 c-49 3 -135 17 -193 31 -118 29 -191 32 -265 9z" fill="#00b0ff"/>
<path d="M12301 9704 c-12 -9 -31 -30 -42 -48 l-19 -31 0 43 0 42 -45 0 -45 0 0 -292 0 -293 47 1 48 1 5 204 c5 213 10 236 54 271 24 20 77 23 107 7 17 -9 22 -5 34 25 8 20 15 42 15 49 0 35 -117 50 -159 21z" fill="#00b0ff"/>
<path d="M9430 9565 l0 -45 265 0 265 0 0 45 0 45 -265 0 -265 0 0 -45z" fill="#00b0ff"/>
<path d="M9430 9320 l0 -50 265 0 265 0 0 50 0 50 -265 0 -265 0 0 -50z" fill="#00b0ff"/>
<path d="M10636 9176 c-22 -8 -51 -23 -65 -34 -36 -27 -80 -91 -87 -129 -6 -28 -3 -33 17 -37 66 -15 71 -13 86 29 18 53 49 83 97 96 88 24 166 -33 166 -120 0 -78 -58 -131 -145 -131 -30 0 -35 -3 -35 -22 0 -13 -3 -33 -6 -45 -6 -21 -4 -22 44 -16 183 21 253 -218 88 -304 -39 -20 -104 -20 -144 1 -36 18 -69 65 -79 109 -4 21 -11 27 -32 27 -74 -1 -86 -22 -52 -95 42 -93 159 -155 265 -140 145 19 235 116 236 253 0 95 -43 163 -118 187 -23 7 -23 8 16 41 51 44 65 80 60 154 -5 70 -39 120 -106 158 -53 29 -152 38 -206 18z" fill="#00b0ff"/>
<path d="M0 4600 l0 -240 2835 0 2835 0 0 240 0 240 -2835 0 -2835 0 0 -240z" fill="#00b0ff"/>
<path d="M0 2135 l0 -2135 2525 0 2525 0 -2 2133 -3 2132 -2522 3 -2523 2 0 -2135z" fill="#00b0ff"/>
</g>
</svg>