<svg xmlns="http://www.w3.org/2000/svg" version="1.1" xmlns:xlink="http://www.w3.org/1999/xlink" xmlns:svgjs="http://svgjs.com/svgjs" width="120" height="120" x="0" y="0" viewBox="0 0 64 64" style="enable-background:new 0 0 512 512" xml:space="preserve" class=""><g><path d="M55.553 37.105a1.002 1.002 0 0 0-.447.447l-5.328 10.655a.735.735 0 0 1-.888.367.731.731 0 0 1-.473-.896l1.544-5.404a1 1 0 0 0-1.498-1.118l-8.847 5.63c-.316.201-.688.256-1.047.156s-.649-.338-.816-.672a1.3 1.3 0 0 1 .383-1.623L44.6 39.8a1 1 0 0 0-.824-1.775l-10.463 2.414a1.513 1.513 0 0 1-1.172-.204 1.517 1.517 0 0 1-.67-.985 1.536 1.536 0 0 1 1.179-1.795l11.561-2.478a1 1 0 0 0-.03-1.961l-8.326-1.514a1.658 1.658 0 0 1-1.083-.706 1.654 1.654 0 0 1-.256-1.266 1.664 1.664 0 0 1 1.776-1.337l9.627.802a1.001 1.001 0 0 0 .897-1.577l-3.829-5.359a1.375 1.375 0 0 1 .147-1.778 1.384 1.384 0 0 1 1.884-.063l6.324 5.534c.283.246.679.314 1.03.176l10-4-.743-1.857-9.431 3.772-1.437-1.257-3.603-19.457-.009.002a.985.985 0 0 0-.135-.365.999.999 0 0 0-1.021-.438L12.561 8.517a1 1 0 0 0-.642.417l-6.41 9.322a.997.997 0 0 0-.159.748L8.2 34.403l-5.829-2.331-.743 1.857 10 4a1 1 0 0 0 1.03-.176l6.324-5.534a1.383 1.383 0 0 1 1.884.063c.479.479.542 1.228.147 1.778l-3.828 5.359a1.001 1.001 0 0 0 .897 1.577l9.627-.802a1.67 1.67 0 0 1 1.52 2.603 1.658 1.658 0 0 1-1.083.706l-8.326 1.514a1 1 0 0 0-.03 1.961l11.561 2.478a1.536 1.536 0 0 1 1.179 1.795c-.082.409-.32.759-.67.985-.35.225-.766.299-1.173.204l-10.462-2.414A1.001 1.001 0 0 0 19.4 51.8l6.464 4.848a1.3 1.3 0 0 1-1.479 2.139l-8.848-5.63a1.001 1.001 0 0 0-1.432 1.291l2 4a1.237 1.237 0 0 1-2.211 1.105l-5-10a1.002 1.002 0 0 0-.447-.447l-6-3-.895 1.789 5.702 2.851 4.851 9.702a3.216 3.216 0 0 0 1.871 1.623 3.23 3.23 0 0 0 2.471-.176 3.241 3.241 0 0 0 1.447-4.342l-.386-.771 5.802 3.691a3.304 3.304 0 0 0 4.725-1.309 3.299 3.299 0 0 0-.972-4.117l-2.68-2.01 5.854 1.351a3.506 3.506 0 0 0 2.707-.473 3.5 3.5 0 0 0 1.547-2.273c.352-1.762-.703-3.487-2.378-4.032l3.753-.695c.033.083.058.168.098.25a3.307 3.307 0 0 0 2.071 1.705 3.316 3.316 0 0 0 2.654-.396l6.625-4.216-.82 2.872a2.727 2.727 0 0 0 2.619 3.483 2.75 2.75 0 0 0 2.454-1.51l5.178-10.357 5.702-2.851-.895-1.789zm-16.378-25.38-10.002 1.852 4.807-6.991 10.002-1.852zm-17.868 3.308 4.807-6.991 5.085-.942-4.807 6.991zm4.874 1.131 2.002 10.816-5.899 1.093-2.003-10.817zm-12.849-5.756 10.001-1.852-4.807 6.991-10.001 1.852zm4.334 20.305-5.863 5.131-1.406-.562-2.899-15.659 10.816-2.002 2.185 11.799a.987.987 0 0 0 .432.639 3.375 3.375 0 0 0-3.265.654zm9.878 7.489-7.475.622 2.573-3.603a3.37 3.37 0 0 0-.36-4.354 3.328 3.328 0 0 0-.948-.655c.05.008.096.026.148.026.06 0 .122-.005.183-.017l7.866-1.456a1 1 0 0 0 .801-1.165l-2.184-11.8 10.816-2.002.441 2.384 1.967-.363-.548-2.96 4.807-6.992 2.702 14.596-1.999-1.749a3.39 3.39 0 0 0-4.616.154 3.37 3.37 0 0 0-.36 4.354l2.573 3.603-7.475-.622a3.664 3.664 0 0 0-3.904 2.937c-.195.973.005 1.961.563 2.782s1.403 1.371 2.38 1.549l3.357.61-6.623 1.42c-1.515.325-2.586 1.603-2.75 3.073a3.65 3.65 0 0 0-1.935-.372zm8.166 6.708-8.596 1.592-1.966-.422 3.357-.61a3.642 3.642 0 0 0 2.379-1.549c.365-.538.56-1.15.608-1.781a3.494 3.494 0 0 0 2.269.248l5.854-1.351-2.68 2.01a3.305 3.305 0 0 0-1.225 1.863zM7 9h2c0-2.757 2.243-5 5-5h1V2h-1c-3.86 0-7 3.141-7 7zM51 60v2h1c3.86 0 7-3.141 7-7h-2c0 2.757-2.243 5-5 5z" fill="#00b0ff" data-original="#00b0ff" class=""></path><path d="M49 57h-1v2h1c3.86 0 7-3.141 7-7h-2c0 2.757-2.243 5-5 5z" fill="#00b0ff" data-original="#00b0ff" class=""></path></g></svg>