<svg xmlns="http://www.w3.org/2000/svg" version="1.1" xmlns:xlink="http://www.w3.org/1999/xlink" xmlns:svgjs="http://svgjs.com/svgjs" width="120" height="120" x="0" y="0" viewBox="0 0 512 512" style="enable-background:new 0 0 512 512" xml:space="preserve" class=""><g><path d="M240.625 113.233h27.084M403.329 294.679V194.19m-307.419 0v257.302M453.377 315.797V135.938L254.437 7.5 45.863 135.938v157.777m0 34.611v123.166M240.625 83.242h27.084" style="stroke-width:15;stroke-linecap:round;stroke-linejoin:round;stroke-miterlimit:10;" fill="none" stroke="#00b0ff" stroke-width="15" stroke-linecap="round" stroke-linejoin="round" stroke-miterlimit="10" data-original="#00b0ff" class=""></path><path d="M241.421 251.62h26.033v35.15h-26.033zM18.182 451.492h285.535M388.636 436.78c-20.604 0-37.315-16.668-37.315-37.219 0-20.523 16.711-37.191 37.315-37.191s37.287 16.668 37.287 37.191c0 20.551-16.682 37.219-37.287 37.219h0zm45.87-114.435a88.845 88.845 0 0 0-23.56-9.751v-9.609c0-4.564-3.78-8.334-8.355-8.334h-27.908c-4.604 0-8.355 3.742-8.355 8.334v9.609a89.469 89.469 0 0 0-23.589 9.751l-6.821-6.803c-3.24-3.232-8.554-3.232-11.794 0l-19.752 19.673c-3.24 3.26-3.24 8.561 0 11.792l6.821 6.803a88.143 88.143 0 0 0-9.776 23.528h-9.634c-4.576 0-8.355 3.742-8.355 8.306v27.836c0 4.592 3.78 8.334 8.355 8.334h9.634a88.222 88.222 0 0 0 9.776 23.528l-6.821 6.803c-3.24 3.232-3.24 8.532 0 11.764l19.752 19.701c3.24 3.232 8.554 3.232 11.794 0l6.821-6.803a89.034 89.034 0 0 0 23.589 9.751v9.609c0 4.564 3.751 8.334 8.355 8.334h27.908c4.576 0 8.355-3.77 8.355-8.334v-9.609a88.878 88.878 0 0 0 23.56-9.751l6.821 6.803c3.24 3.232 8.554 3.232 11.823 0l19.723-19.701c3.24-3.232 3.24-8.532 0-11.764l-6.821-6.803c4.32-7.257 7.645-15.137 9.776-23.528h9.634c4.604 0 8.355-3.742 8.355-8.334v-27.836c0-4.564-3.751-8.306-8.355-8.306h-9.634a88.19 88.19 0 0 0-9.776-23.528l6.821-6.803c3.24-3.232 3.24-8.532 0-11.792l-19.723-19.673c-3.268-3.232-8.583-3.232-11.823 0l-6.821 6.803z" style="stroke-width:15;stroke-linecap:round;stroke-linejoin:round;stroke-miterlimit:10;" fill="none" stroke="#00b0ff" stroke-width="15" stroke-linecap="round" stroke-linejoin="round" stroke-miterlimit="10" data-original="#00b0ff" class=""></path><path d="M302.865 351.542h-98.418c-2.728 0-4.945-2.211-4.945-4.932v-90.029c0-2.721 2.217-4.961 4.945-4.961H304.4c2.728 0 4.974 2.239 4.974 4.961v73.673M186.485 351.542h26.033v35.15h-26.033z" style="stroke-width:15;stroke-linecap:round;stroke-linejoin:round;stroke-miterlimit:10;" fill="none" stroke="#00b0ff" stroke-width="15" stroke-linecap="round" stroke-linejoin="round" stroke-miterlimit="10" data-original="#00b0ff" class=""></path><path d="M149.539 351.542h104.898v99.95H149.539a4.973 4.973 0 0 1-4.974-4.961v-90.029a4.972 4.972 0 0 1 4.974-4.96h0zM270.807 194.19h134c3.894 0 7.105-3.175 7.105-7.087v-19.928c0-3.912-3.211-7.087-7.105-7.087H94.432c-3.894 0-7.105 3.175-7.105 7.087v19.928c0 3.912 3.211 7.087 7.105 7.087h141.674" style="stroke-width:15;stroke-linecap:round;stroke-linejoin:round;stroke-miterlimit:10;" fill="none" stroke="#00b0ff" stroke-width="15" stroke-linecap="round" stroke-linejoin="round" stroke-miterlimit="10" data-original="#00b0ff" class=""></path></g></svg>