<svg xmlns="http://www.w3.org/2000/svg" version="1.1" xmlns:xlink="http://www.w3.org/1999/xlink" xmlns:svgjs="http://svgjs.com/svgjs" width="120" height="120" x="0" y="0" viewBox="0 0 66 66" style="enable-background:new 0 0 512 512" xml:space="preserve" class=""><g><path d="M66 42.5c0-.9-.1-1.6-.2-2.4-.9-6.3-5.6-11.5-11.6-13.1v-9l4.6-7.7c.2-.3.2-.7 0-1-.1-.3-.5-.5-.8-.5H40.9c-.4 0-.7.2-.9.5s-.2.7 0 1l4.6 7.7v8.4h-6.8v-9.5c0-.6-.4-1-1-1H9.4c-.6 0-1 .4-1 1s.4 1 1 1h11.5v8.5h-2.3c-.6 0-1 .4-1 1V33H1c-.6 0-1 .4-1 1v23.6c0 .6.4 1 1 1h19.9c-.1 4.1 3.2 7.4 7.1 7.4 4 0 7.3-3.3 7.1-7.4h6.3c-.2 4.1 3.1 7.4 7.1 7.4 4.4 0 7.8-4 7-8.4L57 57c1.3 2 1.2 4.7-.4 6.6-.3.4-.3 1.1.1 1.4s1.1.3 1.4-.1c2.1-2.5 2.2-6.1.6-8.8C63.2 53 66 47.9 66 42.5zM45.6 28.4c.6 0 1-.4 1-1v-9.6c0-.1-.1-.4-.1-.5l-3.9-6.4h13.6l-3.9 6.4c-.1.1-.1.4-.1.5v10c0 .4.3.9.8 1 5.3 1.2 9.4 5.3 10.7 10.5h-29V35H37c.6 0 1-.4 1-1v-5.6zm-13 15.8h-6.4V25.1h6.4zM35.9 33h-1.3v-8.9c0-.6-.4-1-1-1h-8.4c-.6 0-1 .4-1 1V33h-1.3V17.9h13zM17.5 44.7H2v-3.8h15.5zM2 46.7h15.5v3.8H2zM17.5 35v4H2v-4zM2 56.6v-4h15.5v4zM28 64c-2.8 0-5.1-2.3-5.1-5.1s2.3-5.1 5.1-5.1 5.1 2.3 5.1 5.1c.1 2.8-2.2 5.1-5.1 5.1zm20.5 0c-2.8 0-5.1-2.3-5.1-5.1s2.3-5.1 5.1-5.1 5.1 2.3 5.1 5.1c.1 2.8-2.2 5.1-5.1 5.1zm8.3-9.2c-.6.3-1.3.6-1.9.9-1.2-2.3-3.6-3.9-6.4-3.9-3.1 0-5.8 2-6.8 4.9h-7c-1-2.8-3.6-4.9-6.8-4.9-3.1 0-5.8 2-6.8 4.9h-1.7V28.4h1.3V34c0 .6.4 1 1 1H24v10.3c0 .6.4 1 1 1h8.4c.6 0 1-.4 1-1v-4h29.4c0 .4.1.8.1 1.2.1 5.1-2.6 9.8-7.1 12.3z" fill="#00b0ff" data-original="#00b0ff" class=""></path><path d="M28 55.4c-1.9 0-3.4 1.5-3.4 3.4s1.5 3.4 3.4 3.4 3.4-1.5 3.4-3.4-1.5-3.4-3.4-3.4zm0 4.7c-.8 0-1.4-.6-1.4-1.4s.6-1.4 1.4-1.4 1.4.6 1.4 1.4-.6 1.4-1.4 1.4zM48.5 55.4c-1.9 0-3.4 1.5-3.4 3.4s1.5 3.4 3.4 3.4 3.4-1.5 3.4-3.4-1.5-3.4-3.4-3.4zm0 4.7c-.8 0-1.4-.6-1.4-1.4s.6-1.4 1.4-1.4 1.4.6 1.4 1.4-.6 1.4-1.4 1.4zM12.2 11.3c.4 0 .8-.1 1.2-.2.7.6 1.6.9 2.6.9 1.6 2.5 5.2 2.7 7 .3 1.3.3 2.8-.2 3.7-1.1 1.9 1.5 4.9 1.1 6.2-1.2 1.6.2 3.1-.5 4-1.8 1.9.7 4-.1 5-1.7l4 1c1.9.6 3.3-.3 3.6-1.6.2-.9-.3-2.1-1.7-2.6h-.1l-6-1.6c-.8-1-2-1.6-3.3-1.6-1.4 0-2.7.7-3.5 1.8-.9-.5-2.1-.4-3.1.1C31 1.2 29.9.7 28.7.7c-1.4 0-2.7.7-3.5 1.8-.8-.7-1.8-1.2-2.9-1.2-1.9 0-3.5 1.2-4 2.9-1-.6-2.3-.8-3.4-.4-.7-.6-1.7-.9-2.6-.9C9.9 2.8 8 4.8 8 7.1s1.9 4.2 4.2 4.2zm0-6.5c.6 0 1.2.3 1.7.7.3.3.8.4 1.2.2 1.2-.6 2.6 0 3.1 1.2.1.4.6.7 1.2.6s1-.7.8-1.3c-.6-1.5.6-3 2.1-3 1.1 0 2 .7 2.2 1.7.1.5.6.8 1.1.8s.9-.5.9-1c0-1.2 1-2.2 2.2-2.2.8 0 1.6.4 2 1.2.1.3.3.5.6.6s.6 0 .8-.2c.8-.7 1.9-.7 2.8-.1.3.2.6.2.9.1.2-.1.5-.3.6-.6.3-.9 1.1-1.5 2.1-1.5.8 0 1.5.4 1.9 1 .1.2.3.4.6.4l6.3 1.7c.3.1.4.3.4.4s-.4.2-1.1 0l-4.8-1.2c-.5-.1-1 .1-1.2.6-.5 1.4-2.2 1.9-3.4 1.1-.3-.2-.6-.2-.9-.1s-.5.4-.6.7c-.4 1.1-1.7 1.8-2.9 1.3-.3-.1-.5-.1-.8 0-.2.1-.4.3-.5.6-.6 1.8-2.9 2.1-4 .6-.2-.3-.5-.5-.9-.4-.4 0-.7.2-.8.5-.5 1-1.8 1.5-2.8 1-.5-.2-1.1 0-1.3.5-.8 1.8-3.4 1.8-4.1-.1-.2-.4-.6-.7-1.1-.6-.8.1-1.5-.1-2-.7-.3-.3-.8-.4-1.2-.2-1.5.8-3.2-.4-3.2-2-.1-1.2.9-2.3 2.1-2.3z" fill="#00b0ff" data-original="#00b0ff" class=""></path></g></svg>