<svg xmlns="http://www.w3.org/2000/svg" version="1.1" xmlns:xlink="http://www.w3.org/1999/xlink" xmlns:svgjs="http://svgjs.com/svgjs" width="120" height="120" x="0" y="0" viewBox="0 0 682.667 682.667" style="enable-background:new 0 0 512 512" xml:space="preserve" class=""><g><defs><clipPath id="a" clipPathUnits="userSpaceOnUse"><path d="M0 512h512V0H0Z" fill="#00b0ff" data-original="#00b0ff"></path></clipPath></defs><g clip-path="url(#a)" transform="matrix(1.33333 0 0 -1.33333 0 682.667)"><path d="M0 0v25.232c0 21.479 17.413 38.892 38.893 38.892h295.822c21.479 0 38.891-17.413 38.891-38.892V-59" style="stroke-width:15;stroke-linecap:round;stroke-linejoin:round;stroke-miterlimit:10;stroke-dasharray:none;stroke-opacity:1" transform="translate(7.5 396)" fill="none" stroke="#00b0ff" stroke-width="15" stroke-linecap="round" stroke-linejoin="round" stroke-miterlimit="10" stroke-dasharray="none" stroke-opacity="" data-original="#00b0ff" class=""></path><path d="M0 0h-76.607C-98.087 0-115.5 17.413-115.5 38.892v141.687" style="stroke-width:15;stroke-linecap:round;stroke-linejoin:round;stroke-miterlimit:10;stroke-dasharray:none;stroke-opacity:1" transform="translate(123 175.42)" fill="none" stroke="#00b0ff" stroke-width="15" stroke-linecap="round" stroke-linejoin="round" stroke-miterlimit="10" stroke-dasharray="none" stroke-opacity="" data-original="#00b0ff" class=""></path><path d="M0 0h-44.224v44.223h-56.721V0h-44.224v-56.722h44.224v-44.223h56.721v44.223H0Z" style="stroke-width:15;stroke-linecap:round;stroke-linejoin:round;stroke-miterlimit:10;stroke-dasharray:none;stroke-opacity:1" transform="translate(266.888 346.133)" fill="none" stroke="#00b0ff" stroke-width="15" stroke-linecap="round" stroke-linejoin="round" stroke-miterlimit="10" stroke-dasharray="none" stroke-opacity="" data-original="#00b0ff" class=""></path><path d="M0 0v8.936c0 18.851 15.281 34.133 34.133 34.133h66.327c18.852 0 34.133-15.282 34.133-34.133V0" style="stroke-width:15;stroke-linecap:round;stroke-linejoin:round;stroke-miterlimit:10;stroke-dasharray:none;stroke-opacity:1" transform="translate(127.007 461.431)" fill="none" stroke="#00b0ff" stroke-width="15" stroke-linecap="round" stroke-linejoin="round" stroke-miterlimit="10" stroke-dasharray="none" stroke-opacity="" data-original="#00b0ff" class=""></path><path d="M0 0v64.001a21.61 21.61 0 0 1-7.468 16.338l-23.721 20.528a23.203 23.203 0 0 0-8.02 17.546v7.767H-83.72v-7.767a23.202 23.202 0 0 0-8.019-17.546l-23.722-20.528a21.608 21.608 0 0 1-7.468-16.338V-56.405c0-11.932 9.673-21.606 21.606-21.606h23.92" style="stroke-width:15;stroke-linecap:round;stroke-linejoin:round;stroke-miterlimit:10;stroke-dasharray:none;stroke-opacity:1" transform="translate(434.903 176.5)" fill="none" stroke="#00b0ff" stroke-width="15" stroke-linecap="round" stroke-linejoin="round" stroke-miterlimit="10" stroke-dasharray="none" stroke-opacity="" data-original="#00b0ff" class=""></path><path d="M0 0h-47.216a8.01 8.01 0 0 0-8.011 8.011V69.41a8.01 8.01 0 0 0 8.011 8.011H0a8.011 8.011 0 0 0 8.011-8.011V8.011A8.01 8.01 0 0 0 0 0Z" style="stroke-width:15;stroke-linecap:round;stroke-linejoin:round;stroke-miterlimit:10;stroke-dasharray:none;stroke-opacity:1" transform="translate(397.047 143.759)" fill="none" stroke="#00b0ff" stroke-width="15" stroke-linecap="round" stroke-linejoin="round" stroke-miterlimit="10" stroke-dasharray="none" stroke-opacity="" data-original="#00b0ff" class=""></path><path d="M0 0h-71.807v25.25c0 5.149 4.175 9.323 9.325 9.323h53.158A9.323 9.323 0 0 0 0 25.25Z" style="stroke-width:15;stroke-linecap:round;stroke-linejoin:round;stroke-miterlimit:10;stroke-dasharray:none;stroke-opacity:1" transform="translate(409.342 302.703)" fill="none" stroke="#00b0ff" stroke-width="15" stroke-linecap="round" stroke-linejoin="round" stroke-miterlimit="10" stroke-dasharray="none" stroke-opacity="" data-original="#00b0ff" class=""></path><path d="m0 0 58.847 58.847c4.586 4.586 4.586 12.022 0 16.609l-44.608 44.607c-4.586 4.585-12.021 4.585-16.608 0l-98.771-98.771c-4.586-4.586-4.586-12.022 0-16.608l44.608-44.607c4.586-4.586 12.022-4.586 16.608 0l12.327 12.327" style="stroke-width:15;stroke-linecap:round;stroke-linejoin:round;stroke-miterlimit:10;stroke-dasharray:none;stroke-opacity:1" transform="translate(442.214 60.462)" fill="none" stroke="#00b0ff" stroke-width="15" stroke-linecap="round" stroke-linejoin="round" stroke-miterlimit="10" stroke-dasharray="none" stroke-opacity="" data-original="#00b0ff" class=""></path><path d="M0 0c9.652 0 9.668 15 0 15-9.651 0-9.668-15 0-15" style="fill-opacity:1;fill-rule:nonzero;stroke:none" transform="translate(374.549 68.693)" fill="#00b0ff" data-original="#00b0ff"></path><path d="M0 0c9.652 0 9.668 15 0 15-9.651 0-9.668-15 0-15" style="fill-opacity:1;fill-rule:nonzero;stroke:none" transform="translate(398.168 92.312)" fill="#00b0ff" data-original="#00b0ff"></path><path d="M0 0c9.652 0 9.668 15 0 15-9.651 0-9.668-15 0-15" style="fill-opacity:1;fill-rule:nonzero;stroke:none" transform="translate(421.787 115.931)" fill="#00b0ff" data-original="#00b0ff"></path><path d="M0 0c9.652 0 9.668 15 0 15-9.651 0-9.668-15 0-15" style="fill-opacity:1;fill-rule:nonzero;stroke:none" transform="translate(445.406 139.55)" fill="#00b0ff" data-original="#00b0ff"></path><path d="M0 0c9.652 0 9.668 15 0 15-9.651 0-9.668-15 0-15" style="fill-opacity:1;fill-rule:nonzero;stroke:none" transform="translate(394.954 48.288)" fill="#00b0ff" data-original="#00b0ff"></path><path d="M0 0c9.652 0 9.668 15 0 15-9.651 0-9.668-15 0-15" style="fill-opacity:1;fill-rule:nonzero;stroke:none" transform="translate(418.573 71.907)" fill="#00b0ff" data-original="#00b0ff"></path><path d="M0 0c9.652 0 9.668 15 0 15-9.651 0-9.668-15 0-15" style="fill-opacity:1;fill-rule:nonzero;stroke:none" transform="translate(442.192 95.526)" fill="#00b0ff" data-original="#00b0ff"></path><path d="M0 0c9.651 0 9.668 15 0 15-9.651 0-9.668-15 0-15" style="fill-opacity:1;fill-rule:nonzero;stroke:none" transform="translate(465.812 119.145)" fill="#00b0ff" data-original="#00b0ff"></path><path d="M0 0c-14.066 0-25.511 11.444-25.511 25.511 0 14.067 11.445 25.511 25.511 25.511 14.066 0 25.511-11.444 25.511-25.511C25.511 11.444 14.066 0 0 0Zm59.246 12.52a60.833 60.833 0 0 1 1.396 12.991c0 33.491-27.151 60.641-60.642 60.641s-60.642-27.15-60.642-60.641S-33.491-35.13 0-35.13a60.53 60.53 0 0 1 20.453 3.536" style="stroke-width:15;stroke-linecap:round;stroke-linejoin:round;stroke-miterlimit:10;stroke-dasharray:none;stroke-opacity:1" transform="translate(176.62 117.989)" fill="none" stroke="#00b0ff" stroke-width="15" stroke-linecap="round" stroke-linejoin="round" stroke-miterlimit="10" stroke-dasharray="none" stroke-opacity="" data-original="#00b0ff" class=""></path><path d="m0 0-.191-70.004" style="stroke-width:15;stroke-linecap:round;stroke-linejoin:round;stroke-miterlimit:10;stroke-dasharray:none;stroke-opacity:1" transform="translate(238.191 215.504)" fill="none" stroke="#00b0ff" stroke-width="15" stroke-linecap="round" stroke-linejoin="round" stroke-miterlimit="10" stroke-dasharray="none" stroke-opacity="" data-original="#00b0ff" class=""></path><path d="M0 0c-1.471-40.991-32.352-66.908-55.144-75.364-30.744-11.405-55.879-8.639-55.879-8.639V36.211s26.374-5.667 55.879 8.639C-30.881 56.614 0 91.171 0 123.706Z" style="stroke-width:15;stroke-linecap:round;stroke-linejoin:round;stroke-miterlimit:10;stroke-dasharray:none;stroke-opacity:1" transform="translate(311.217 91.798)" fill="none" stroke="#00b0ff" stroke-width="15" stroke-linecap="round" stroke-linejoin="round" stroke-miterlimit="10" stroke-dasharray="none" stroke-opacity="" data-original="#00b0ff" class=""></path><path d="M0 0c0-7.614-16.348-13.786-36.513-13.786-20.166 0-36.512 6.172-36.512 13.786s16.346 13.786 36.512 13.786C-16.348 13.786 0 7.614 0 0Z" style="stroke-width:15;stroke-linecap:round;stroke-linejoin:round;stroke-miterlimit:10;stroke-dasharray:none;stroke-opacity:1" transform="translate(311.217 215.504)" fill="none" stroke="#00b0ff" stroke-width="15" stroke-linecap="round" stroke-linejoin="round" stroke-miterlimit="10" stroke-dasharray="none" stroke-opacity="" data-original="#00b0ff" class=""></path></g></g></svg>