<svg xmlns="http://www.w3.org/2000/svg" version="1.1" xmlns:xlink="http://www.w3.org/1999/xlink" xmlns:svgjs="http://svgjs.com/svgjs" width="120" height="120" x="0" y="0" viewBox="0 0 64 64" style="enable-background:new 0 0 512 512" xml:space="preserve" class=""><g><path d="M49 14.618 62.236 8 49 1.382V4H30v2h21V4.618L57.764 8 51 11.382V10H22v2h27z" fill="#00b0ff" data-original="#00b0ff"></path><path d="M26 4h2v2h-2zM22 4h2v2h-2zM36 49.382 22.764 56 36 62.618V60h19v-2H34v1.382L27.236 56 34 52.618V54h29v-2H36z" fill="#00b0ff" data-original="#00b0ff"></path><path d="M57 58h2v2h-2zM61 58h2v2h-2zM57 40h2v2h-2zM53 40h2v2h-2zM49 40h2v2h-2zM49 36h10v2H49z" fill="#00b0ff" data-original="#00b0ff"></path><path d="M60 20H36.181c-3.813-4.452-9.313-7-15.181-7C9.972 13 1 21.972 1 33s8.972 20 20 20c5.868 0 11.368-2.548 15.181-7H60c1.654 0 3-1.346 3-3V23c0-1.654-1.346-3-3-3zm-9 2v4h-6v-4zm-16.886-1.314c-.42.343-.744.793-.93 1.314h-5.448c-.665-2.653-1.587-4.948-2.754-6.557a17.923 17.923 0 0 1 9.132 5.243zM33 42h-4.822c.484-2.525.757-5.271.811-8H33zm-12 9c-1.69 0-3.491-2.637-4.674-7h9.349c-1.184 4.363-2.985 7-4.675 7zm-5.152-9c-.474-2.326-.772-5.029-.829-8h11.963c-.057 2.971-.356 5.674-.829 8zM3.051 34h9.96c.054 2.729.327 5.475.811 8H5.436a17.84 17.84 0 0 1-2.385-8zM21 15c1.69 0 3.491 2.637 4.674 7h-9.349c1.184-4.363 2.985-7 4.675-7zm5.152 9c.474 2.326.772 5.029.829 8H15.019c.057-2.971.356-5.674.829-8zm-13.141 8h-9.96a17.854 17.854 0 0 1 2.385-8h8.386c-.484 2.525-.757 5.271-.811 8zM33 32h-4.011c-.054-2.729-.327-5.475-.811-8H33zM17.004 15.462c-1.16 1.608-2.078 3.895-2.74 6.538h-7.48a18.014 18.014 0 0 1 10.22-6.538zM6.784 44h7.48c.662 2.643 1.579 4.93 2.74 6.537A18.007 18.007 0 0 1 6.784 44zm18.198 6.557c1.167-1.609 2.089-3.904 2.754-6.557h5.448c.186.521.509.971.93 1.314a17.923 17.923 0 0 1-9.132 5.243zM61 43c0 .552-.449 1-1 1H36c-.551 0-1-.448-1-1V23c0-.551.449-1 1-1h7v6h10v-6h7c.551 0 1 .449 1 1z" fill="#00b0ff" data-original="#00b0ff"></path><path d="M17 36h2v2h-2zM21 36h2v2h-2zM23 28h2v2h-2zM19 28h2v2h-2z" fill="#00b0ff" data-original="#00b0ff"></path></g></svg>