<svg xmlns="http://www.w3.org/2000/svg" version="1.1" xmlns:xlink="http://www.w3.org/1999/xlink" xmlns:svgjs="http://svgjs.com/svgjs" width="120" height="120" x="0" y="0" viewBox="0 0 512 512" style="enable-background:new 0 0 512 512" xml:space="preserve" class=""><g><path d="m486.4 292.8-24.088-18.067-23.156-46.311-11.58-23.16A23.866 23.866 0 0 0 406.11 192H336v-56a8 8 0 0 0-8-8H24a8 8 0 0 0-8 8v40h16v-32h198.3l-12.577 16H80v16h134.581l17.9 22.769-27.21 13.337a8 8 0 0 0-4.29 8.91l6.537 29.593-30.3.211a8 8 0 0 0-7.732 6.165l-6.95 29.494-27.39-12.96a8 8 0 0 0-9.642 2.2l-19.065 23.561-19.059-23.561a8 8 0 0 0-9.642-2.2l-27.39 12.96-6.948-29.494a8 8 0 0 0-7.731-6.165L32 250.8V192H16v200a8 8 0 0 0 8 8h24.581a55.992 55.992 0 0 0 110.838 0h185.162a56 56 0 1 0 0-16H336V208h70.11a7.955 7.955 0 0 1 7.155 4.417L419.056 224H376a8 8 0 0 0-8 8v48a8 8 0 0 0 8 8h77.333l23.47 17.6A8.032 8.032 0 0 1 480 312v8h-20a12.013 12.013 0 0 0-12 12v24a12.013 12.013 0 0 0 12 12h20v16h-8v16h16a8 8 0 0 0 8-8v-80a24.1 24.1 0 0 0-9.6-19.2ZM104 432a40 40 0 1 1 40-40 40.045 40.045 0 0 1-40 40Zm216-232v184H159.419a55.992 55.992 0 0 0-110.838 0H32V278.379l5.043 21.4a8 8 0 0 0 11.209 5.4l30.644-14.5 21.324 26.36a8 8 0 0 0 12.439 0l21.324-26.361 30.645 14.5a8 8 0 0 0 11.209-5.4l7.776-33 33.9-.236a8 8 0 0 0 7.755-9.726l-7.313-33.108 30.445-14.924a8 8 0 0 0 2.768-12.128L234.932 176H304v-16h-65.925l12.578-16H320Zm80 152a40 40 0 1 1-40 40 40.045 40.045 0 0 1 40-40Zm-16-80v-32h43.056l16 32Zm96 80h-16v-16h16Zm-376 16a24 24 0 1 0 24 24 24.027 24.027 0 0 0-24-24Zm0 32a8 8 0 1 1 8-8 8.009 8.009 0 0 1-8 8Zm296 16a24 24 0 1 0-24-24 24.027 24.027 0 0 0 24 24Zm0-32a8 8 0 1 1-8 8 8.009 8.009 0 0 1 8-8Zm-232-32h136v16H168ZM64 176H48v-16h16Zm136-64H88V96h112Zm128 320h-96v-16h96Zm-112-16v16h-16v-16ZM144 80H48V64h96ZM32 80H16V64h16Z" fill="#00b0ff" data-original="#00b0ff" class=""></path></g></svg>