<svg xmlns="http://www.w3.org/2000/svg" version="1.1" xmlns:xlink="http://www.w3.org/1999/xlink" xmlns:svgjs="http://svgjs.com/svgjs" width="120" height="120" x="0" y="0" viewBox="0 0 512 512" style="enable-background:new 0 0 512 512" xml:space="preserve" class=""><g><path d="M19 469.2c17.1 0 25.8-9.4 33.5-17.7 14.9-19.1 36.5-19 51.4 0 18.8 23.6 48.4 23.5 67 0 15.1-19.1 36.4-19 51.4 0 7.7 8.3 16.4 17.7 33.5 17.7s25.8-9.4 33.5-17.7c7.1-7.6 13.2-14.3 25.7-14.3 19.4-.2 25.4 18.1 40.1 26.6 19.6 11.5 38.6 2.8 52.6-12.3 14.9-19 36.6-19.1 51.5 0 7.7 8.3 16.4 17.7 33.5 17.7 6.8-.1 7.1-10.5 0-10.6-12.5 0-18.6-6.6-25.7-14.3-7.7-8.3-16.4-17.7-33.5-17.7-28.3-.5-31 25-53 31.2l43.3-77.7c5.6-10.5 15.9-24.2 11.3-36.8-2.3-8.1-8.4-15.3-16.7-19.6l-17.3-6.6v-79.5c0-6.6-5.3-11.9-11.9-11.9H378v-79.3c0-2.9-2.4-5.3-5.3-5.3h-54.1v-39H342c6 0 11-4.9 11-11V76.8c0-6-4.9-11-11-11h-53.3l-10.2-30.5c-.7-2.2-2.8-3.6-5-3.6H245V11.6h35.4c6.9 0 7-10.6 0-10.6h-81.5c-6.9 0-7 10.6 0 10.6h35.4v20.2H206c-2.3 0-4.3 1.5-5 3.6l-10.2 30.5h-53.3c-6 0-11 4.9-11 11v14.5c0 6 4.9 11 11 11H161v39h-42.2c-2.9 0-5.3 2.4-5.3 5.3V226H96.1c-6.6 0-11.9 5.3-11.9 11.9v79.5L67 323.9c-8.4 4.2-14.4 11.5-16.7 19.5-4.6 12.6 5.6 26.3 11.3 36.8L88.2 428c-18.4-5.4-34.8 5.5-43.4 16.4-7.1 7.6-13.2 14.3-25.7 14.3-7-.1-7 10.5-.1 10.5zm353.8-232.7h16.7c.7 0 1.2.6 1.2 1.3v75.4l-130.8-50-11.8-4.5v-20.9c0-.7.6-1.2 1.2-1.3 25.1 0 97.4.1 123.5 0zm-164.1-84.6h74v74h-74zm-5.4-10.6h-31.9v-39h136.4v39H203.3zm164 10.6v74h-74v-74zM209.8 42.4h59.8l7.9 23.4H202zm-72.7 48.9.3-14.8 204.9.3v14.5c0 .2-.1.3-.3.3zM124 151.9h74v74h-74zm-29.2 85.9c0-.7.6-1.3 1.3-1.3h22.5c23.3.1 95.6 0 117.7 0 .7 0 1.2.6 1.2 1.3v20.9c-25.9 9.9-115.2 44-142.6 54.5v-75.4zM68.3 370.5 62 359.3c-5.4-9.6-.5-20.3 9.1-25.6l20.2-7.7c10-3.8 145-55.5 151.4-57.9 15.7 6 152.3 58.2 171.6 65.6 9.6 5.3 14.5 16 9.1 25.5 0 0-6.2 11.2-6.3 11.3l-172.5-66a5 5 0 0 0-3.8 0L69.5 370zm5.3 9.4 169.2-64.7L412 379.9 368.5 458c-15.1-3.2-21.6-19.3-34.4-26.3-19.9-11.9-41.5-1.5-52.4 12.6-7.1 7.6-13.2 14.3-25.7 14.3s-18.6-6.6-25.7-14.3c-7.7-8.3-16.4-17.7-33.5-17.7s-25.8 9.4-33.5 17.7c-7.1 7.6-13.2 14.2-25.7 14.2-15.5.1-21.8-10.8-31.2-19.9-.1.1-32.8-58.7-32.8-58.7zm424.7 125.8c0 2.9-2.4 5.3-5.3 5.3-17.1 0-25.8-9.4-33.5-17.7-7.1-7.6-13.2-14.3-25.7-14.3s-18.6 6.6-25.7 14.3c-7.7 8.3-16.4 17.7-33.5 17.7s-25.8-9.4-33.5-17.7c-7.1-7.6-13.2-14.3-25.7-14.3s-18.6 6.6-25.7 14.3c-7.7 8.3-16.4 17.7-33.5 17.7s-25.8-9.4-33.5-17.7c-7.1-7.6-13.2-14.3-25.7-14.3s-18.6 6.6-25.7 14.3c-7.7 8.3-16.4 17.7-33.5 17.7s-25.8-9.4-33.5-17.7c-7.1-7.6-13.2-14.3-25.7-14.3s-18.6 6.6-25.7 14.3c-8 8.3-16.7 17.7-33.9 17.7-2.9 0-5.3-2.4-5.3-5.3s2.4-5.3 5.3-5.3c12.5 0 18.6-6.6 25.7-14.3 7.7-8.3 16.4-17.7 33.5-17.7s25.8 9.4 33.5 17.7c7.1 7.6 13.2 14.3 25.7 14.3s18.6-6.6 25.7-14.3c7.7-8.3 16.4-17.7 33.5-17.7s25.8 9.4 33.5 17.7c7.1 7.6 13.2 14.3 25.7 14.3s18.6-6.6 25.7-14.3c7.7-8.3 16.4-17.7 33.5-17.7s25.8 9.4 33.5 17.7c7.1 7.6 13.2 14.3 25.7 14.3s18.6-6.6 25.7-14.3c7.7-8.3 16.4-17.7 33.5-17.7s25.8 9.4 33.5 17.7c7.1 7.6 13.2 14.3 25.7 14.3 3.3 0 5.7 2.3 5.7 5.3zM145.4 183.6v10.6c0 2.9-2.4 5.3-5.3 5.3s-5.3-2.4-5.3-5.3v-10.6c0-6.9 10.6-6.9 10.6 0zm20.9 0v10.6c0 2.9-2.4 5.3-5.3 5.3s-5.3-2.4-5.3-5.3v-10.6c0-6.9 10.6-6.9 10.6 0zm21 0v10.6c0 2.9-2.4 5.3-5.3 5.3s-5.3-2.4-5.3-5.3v-10.6c-.1-6.9 10.5-6.9 10.6 0zm41.5 0v10.6c0 2.9-2.4 5.3-5.3 5.3s-5.3-2.4-5.3-5.3v-10.6c0-6.9 10.6-6.9 10.6 0zm10.3 10.6v-10.6c0-2.9 2.4-5.3 5.3-5.3s5.3 2.4 5.3 5.3v10.6c0 6.9-10.6 6.9-10.6 0zm20.9 0v-10.6c0-2.9 2.4-5.3 5.3-5.3s5.3 2.4 5.3 5.3v10.6c0 6.9-10.6 6.9-10.6 0zm54.7-10.6v10.6c0 2.9-2.4 5.3-5.3 5.3s-5.3-2.4-5.3-5.3v-10.6c0-6.9 10.6-6.9 10.6 0zm10.3 10.6v-10.6c0-2.9 2.4-5.3 5.3-5.3s5.3 2.4 5.3 5.3v10.6c0 6.9-10.6 6.9-10.6 0zm20.9 0v-10.6c0-2.9 2.4-5.3 5.3-5.3s5.3 2.4 5.3 5.3v10.6c0 6.9-10.5 6.9-10.6 0zm-41.8 76.5V263c0-7 10.6-7 10.6 0v7.7c0 7-10.6 7-10.6 0zm20.9 0V263c0-7 10.6-7 10.6 0v7.7c0 7-10.6 7-10.6 0zm20.9 0V263c0-7 10.6-7 10.6 0v7.7c0 7-10.5 7-10.6 0zM145.4 263v7.7c0 7-10.6 7-10.6 0V263c0-7 10.6-7 10.6 0zm20.9 0v7.7c0 7-10.6 7-10.6 0V263c0-7 10.6-7 10.6 0zm21 0v7.7c0 7-10.6 7-10.6 0V263c-.1-7 10.5-7 10.6 0zM288 127.1h-98.7c-6.9 0-7-10.6 0-10.6H288c6.9 0 7 10.5 0 10.6z" fill="#00b0ff" data-original="#00b0ff" class=""></path></g></svg>