<svg xmlns="http://www.w3.org/2000/svg" version="1.1" xmlns:xlink="http://www.w3.org/1999/xlink" xmlns:svgjs="http://svgjs.com/svgjs" width="120" height="120" x="0" y="0" viewBox="0 0 682.667 682.667" style="enable-background:new 0 0 512 512" xml:space="preserve" class=""><g><defs><clipPath id="a" clipPathUnits="userSpaceOnUse"><path d="M0 512h512V0H0Z" fill="#00b0ff" data-original="#00b0ff"></path></clipPath></defs><g clip-path="url(#a)" transform="matrix(1.33333 0 0 -1.33333 0 682.667)"><path d="M0 0c0-33.138 26.863-60 60-60h394.508C469.691-60 482-47.691 482-32.509a27.492 27.492 0 0 1-15.866 24.913L449.857 0l-84.898 99.047A59.998 59.998 0 0 1 319.404 120h-83.951a59.998 59.998 0 0 1-45.555-20.953L105 0H60L30 120H0V30" style="stroke-width:15;stroke-linecap:round;stroke-linejoin:round;stroke-miterlimit:10;stroke-dasharray:none;stroke-opacity:1" transform="translate(22.5 224.697)" fill="none" stroke="#00b0ff" stroke-width="15" stroke-linecap="round" stroke-linejoin="round" stroke-miterlimit="10" stroke-dasharray="none" stroke-opacity="" data-original="#00b0ff" class=""></path><path d="M0 0h-52.5c-8.284 0-15-6.716-15-15 0-8.284 6.716-15 15-15h60" style="stroke-width:15;stroke-linecap:round;stroke-linejoin:round;stroke-miterlimit:10;stroke-dasharray:none;stroke-opacity:1" transform="translate(75 254.697)" fill="none" stroke="#00b0ff" stroke-width="15" stroke-linecap="round" stroke-linejoin="round" stroke-miterlimit="10" stroke-dasharray="none" stroke-opacity="" data-original="#00b0ff" class=""></path><path d="M0 0v-30h-96.018a45 45 0 0 0-34.166 15.714L-142.429 0" style="stroke-width:15;stroke-linecap:round;stroke-linejoin:round;stroke-miterlimit:10;stroke-dasharray:none;stroke-opacity:1" transform="translate(269.929 164.697)" fill="none" stroke="#00b0ff" stroke-width="15" stroke-linecap="round" stroke-linejoin="round" stroke-miterlimit="10" stroke-dasharray="none" stroke-opacity="" data-original="#00b0ff" class=""></path><path d="M0 0h144.572" style="stroke-width:15;stroke-linecap:round;stroke-linejoin:round;stroke-miterlimit:10;stroke-dasharray:none;stroke-opacity:1" transform="translate(95.357 374.697)" fill="none" stroke="#00b0ff" stroke-width="15" stroke-linecap="round" stroke-linejoin="round" stroke-miterlimit="10" stroke-dasharray="none" stroke-opacity="" data-original="#00b0ff" class=""></path><path d="M0 0v-30" style="stroke-width:15;stroke-linecap:round;stroke-linejoin:round;stroke-miterlimit:10;stroke-dasharray:none;stroke-opacity:1" transform="translate(329.929 374.697)" fill="none" stroke="#00b0ff" stroke-width="15" stroke-linecap="round" stroke-linejoin="round" stroke-miterlimit="10" stroke-dasharray="none" stroke-opacity="" data-original="#00b0ff" class=""></path><path d="M0 0v-32.605" style="stroke-width:15;stroke-linecap:round;stroke-linejoin:round;stroke-miterlimit:10;stroke-dasharray:none;stroke-opacity:1" transform="translate(314.929 407.303)" fill="none" stroke="#00b0ff" stroke-width="15" stroke-linecap="round" stroke-linejoin="round" stroke-miterlimit="10" stroke-dasharray="none" stroke-opacity="" data-original="#00b0ff" class=""></path><path d="M0 0h-60c-8.28 0-15-6.72-15-15 0-8.28 6.72-15 15-15H0c8.28 0 15 6.72 15 15C15-6.72 8.28 0 0 0Z" style="stroke-width:15;stroke-linecap:round;stroke-linejoin:round;stroke-miterlimit:10;stroke-dasharray:none;stroke-opacity:1" transform="translate(329.929 437.303)" fill="none" stroke="#00b0ff" stroke-width="15" stroke-linecap="round" stroke-linejoin="round" stroke-miterlimit="10" stroke-dasharray="none" stroke-opacity="" data-original="#00b0ff" class=""></path><path d="M0 0v30h234.571" style="stroke-width:15;stroke-linecap:round;stroke-linejoin:round;stroke-miterlimit:10;stroke-dasharray:none;stroke-opacity:1" transform="translate(269.929 344.697)" fill="none" stroke="#00b0ff" stroke-width="15" stroke-linecap="round" stroke-linejoin="round" stroke-miterlimit="10" stroke-dasharray="none" stroke-opacity="" data-original="#00b0ff" class=""></path><path d="M0 0v-32.605" style="stroke-width:15;stroke-linecap:round;stroke-linejoin:round;stroke-miterlimit:10;stroke-dasharray:none;stroke-opacity:1" transform="translate(284.929 407.303)" fill="none" stroke="#00b0ff" stroke-width="15" stroke-linecap="round" stroke-linejoin="round" stroke-miterlimit="10" stroke-dasharray="none" stroke-opacity="" data-original="#00b0ff" class=""></path><path d="M0 0a29.969 29.969 0 0 1-22.778 10.476h-83.951v-75H55.306Z" style="stroke-width:15;stroke-linecap:round;stroke-linejoin:round;stroke-miterlimit:10;stroke-dasharray:none;stroke-opacity:1" transform="translate(364.682 304.222)" fill="none" stroke="#00b0ff" stroke-width="15" stroke-linecap="round" stroke-linejoin="round" stroke-miterlimit="10" stroke-dasharray="none" stroke-opacity="" data-original="#00b0ff" class=""></path><path d="M0 0v45h-125.031c-12.427 0-22.5-10.073-22.5-22.5S-137.458 0-125.031 0" style="stroke-width:15;stroke-linecap:round;stroke-linejoin:round;stroke-miterlimit:10;stroke-dasharray:none;stroke-opacity:1" transform="translate(329.929 164.697)" fill="none" stroke="#00b0ff" stroke-width="15" stroke-linecap="round" stroke-linejoin="round" stroke-miterlimit="10" stroke-dasharray="none" stroke-opacity="" data-original="#00b0ff" class=""></path><path d="M0 0v45" style="stroke-width:15;stroke-linecap:round;stroke-linejoin:round;stroke-miterlimit:10;stroke-dasharray:none;stroke-opacity:1" transform="translate(299.929 164.697)" fill="none" stroke="#00b0ff" stroke-width="15" stroke-linecap="round" stroke-linejoin="round" stroke-miterlimit="10" stroke-dasharray="none" stroke-opacity="" data-original="#00b0ff" class=""></path><path d="M0 0v-75" style="stroke-width:15;stroke-linecap:round;stroke-linejoin:round;stroke-miterlimit:10;stroke-dasharray:none;stroke-opacity:1" transform="translate(299.929 314.697)" fill="none" stroke="#00b0ff" stroke-width="15" stroke-linecap="round" stroke-linejoin="round" stroke-miterlimit="10" stroke-dasharray="none" stroke-opacity="" data-original="#00b0ff" class=""></path><path d="M0 0c0-8.284 6.715-15 15-15 8.284 0 15 6.716 15 15 0 8.284-6.716 15-15 15C6.715 15 0 8.284 0 0Z" style="stroke-width:15;stroke-linecap:round;stroke-linejoin:round;stroke-miterlimit:10;stroke-dasharray:none;stroke-opacity:1" transform="translate(359.929 119.697)" fill="none" stroke="#00b0ff" stroke-width="15" stroke-linecap="round" stroke-linejoin="round" stroke-miterlimit="10" stroke-dasharray="none" stroke-opacity="" data-original="#00b0ff" class=""></path><path d="M0 0a7.5 7.5 0 0 1 7.5-7.5A7.5 7.5 0 1 1 0 0" style="fill-opacity:1;fill-rule:nonzero;stroke:none" transform="translate(144.898 187.197)" fill="#00b0ff" data-original="#00b0ff"></path><path d="M0 0a7.5 7.5 0 0 1 7.5-7.5A7.5 7.5 0 1 1 0 0" style="fill-opacity:1;fill-rule:nonzero;stroke:none" transform="translate(114.898 187.197)" fill="#00b0ff" data-original="#00b0ff"></path><path d="M0 0a7.5 7.5 0 0 1 7.5-7.5A7.5 7.5 0 1 1 0 0" style="fill-opacity:1;fill-rule:nonzero;stroke:none" transform="translate(84.898 187.197)" fill="#00b0ff" data-original="#00b0ff"></path><path d="M0 0c0-24.853 20.147-45 45-45S90-24.853 90 0 69.853 45 45 45 0 24.853 0 0Z" style="stroke-width:15;stroke-linecap:round;stroke-linejoin:round;stroke-miterlimit:10;stroke-dasharray:none;stroke-opacity:1" transform="translate(329.929 119.697)" fill="none" stroke="#00b0ff" stroke-width="15" stroke-linecap="round" stroke-linejoin="round" stroke-miterlimit="10" stroke-dasharray="none" stroke-opacity="" data-original="#00b0ff" class=""></path></g></g></svg>